<?xml version="1.0" encoding="UTF-8" standalone="no"?>
<!-- Created with Inkscape (http://www.inkscape.org/) -->

<svg
   width="24.068359mm"
   height="10.490378mm"
   viewBox="0 0 24.068359 10.490378"
   version="1.1"
   id="svg5"
   inkscape:version="1.1 (1:1.1+202105261517+ce6663b3b7)"
   sodipodi:docname="logo-color.svg"
   xmlns:inkscape="http://www.inkscape.org/namespaces/inkscape"
   xmlns:sodipodi="http://sodipodi.sourceforge.net/DTD/sodipodi-0.dtd"
   xmlns="http://www.w3.org/2000/svg"
   xmlns:svg="http://www.w3.org/2000/svg">
  <sodipodi:namedview
     id="namedview7"
     pagecolor="#ededed"
     bordercolor="#dcdcdc"
     borderopacity="1"
     inkscape:pageshadow="0"
     inkscape:pageopacity="0"
     inkscape:pagecheckerboard="false"
     inkscape:document-units="mm"
     showgrid="false"
     fit-margin-top="0"
     fit-margin-left="0"
     fit-margin-right="0"
     fit-margin-bottom="0"
     inkscape:zoom="6.0150393"
     inkscape:cx="42.643113"
     inkscape:cy="8.0631228"
     inkscape:window-width="1860"
     inkscape:window-height="1016"
     inkscape:window-x="60"
     inkscape:window-y="27"
     inkscape:window-maximized="1"
     inkscape:current-layer="g62789" />
  <defs
     id="defs2" />
  <g
     inkscape:label="Layer 1"
     inkscape:groupmode="layer"
     id="layer1"
     transform="translate(-4.810195,-5.382982)">
    <g
       id="g62789"
       transform="translate(-21.078284,-45.530183)">
      <path
         id="ellipse839"
         style="color:#000000;fill:#2980b9;fill-rule:evenodd;stroke:#ffffff;stroke-width:1;stroke-linecap:round;stroke-linejoin:round;stroke-miterlimit:4;stroke-dasharray:none;stroke-opacity:1"
         d="m 48.496173,51.413165 c -0.418505,0 -0.77705,0.27288 -0.906921,0.649056 -0.427845,0.0021 -0.948778,0.02094 -1.475879,0.182935 -0.620331,0.19064 -1.247576,0.592769 -1.702222,1.365808 -0.03625,-0.0042 -0.07328,-0.0062 -0.110587,-0.0062 -0.526905,0 -0.958598,0.431691 -0.958598,0.958598 0,0.27064 0.113819,0.516527 0.296106,0.69143 -0.214776,0.359006 -0.444772,0.688688 -0.763261,0.923975 -0.3472,0.256497 -0.803798,0.420618 -1.526005,0.385506 -0.106866,-0.413844 -0.485557,-0.72347 -0.930693,-0.72347 -0.40457,0 -0.75339,0.256063 -0.893485,0.613399 h -5.317505 l -2.252059,-2.254126 h -1.867586 c -0.178044,-0.845823 -0.933159,-1.486214 -1.829863,-1.486214 -1.027914,0 -1.869136,0.841222 -1.869136,1.869136 0,1.027915 0.841222,1.869137 1.869136,1.869137 0.902311,0 1.661079,-0.648034 1.832963,-1.501717 h 1.553911 l 2.252058,2.253609 h 3.921725 l -1.413867,1.412317 h -2.434477 c -0.191076,-0.828638 -0.937146,-1.451074 -1.821594,-1.451074 -1.027914,0 -1.869137,0.841222 -1.869137,1.869136 0,1.027914 0.841223,1.869137 1.869137,1.869137 0.914749,0 1.68139,-0.666266 1.839164,-1.537374 h 2.727482 l 2.163692,-2.162142 h 0.669727 c 0.152987,0.327781 0.486191,0.556555 0.869714,0.556555 0.436171,0 0.808608,-0.29574 0.923975,-0.696598 0.803611,0.03399 1.394022,-0.160677 1.829862,-0.482658 0.408411,-0.301718 0.677248,-0.699752 0.905888,-1.085205 0.07159,0.01725 0.146086,0.02636 0.222726,0.02636 0.526906,0 0.961181,-0.43221 0.961181,-0.959114 0,-0.310319 -0.150487,-0.587619 -0.381889,-0.763261 0.38658,-0.624054 0.871676,-0.919642 1.381828,-1.076421 0.435148,-0.133728 0.888521,-0.157137 1.294495,-0.16123 0.08909,0.436723 0.478212,0.768428 0.939994,0.768428 0.526905,0 0.960665,-0.431691 0.960665,-0.958597 0,-0.526905 -0.43376,-0.959115 -0.960665,-0.959115 z m 0,0.499711 c 0.256686,0 0.460954,0.202718 0.460954,0.459404 0,0.256685 -0.204268,0.458886 -0.460954,0.458886 -0.256686,0 -0.458887,-0.202201 -0.458887,-0.458886 0,-0.256686 0.202201,-0.459404 0.458887,-0.459404 z m -11.568286,0.797367 v 0.03514 2.835486 h 0.402043 v -2.870626 z m 5.517493,0 v 0.03514 2.835486 h 0.400492 v -2.870626 z m -9.76943,0.113172 v 0.03514 0.341581 h 0.952914 v 2.380733 h 0.435632 v -2.380733 h 0.95498 v -0.376721 z m 7.560262,0 v 0.03514 2.722314 h 0.433566 v -1.080037 h 0.422196 c 0.306563,0 0.542701,-0.06768 0.704866,-0.21084 0.163363,-0.143101 0.24443,-0.356795 0.24443,-0.628902 0,-0.269768 -0.08114,-0.480184 -0.24443,-0.623218 -0.162141,-0.144407 -0.398257,-0.214457 -0.704866,-0.214457 z m 5.57227,0.09922 v 0.572574 h -0.241846 v 0.328146 h 0.241846 v 1.058333 c 0,0.256593 0.04845,0.440459 0.156579,0.547253 0.108213,0.105543 0.294467,0.151929 0.554489,0.151929 h 0.37517 v -0.345715 h -0.37517 c -0.134098,0 -0.216816,-0.02628 -0.250114,-0.06046 -0.03034,-0.03197 -0.05633,-0.131695 -0.05633,-0.293005 v -1.058333 h 0.681612 v -0.328146 h -0.681612 v -0.572574 h -0.03514 z m -5.138704,0.269751 h 0.422196 c 0.163222,0 0.284276,0.04063 0.36897,0.120922 0.08467,0.08028 0.127124,0.193628 0.127124,0.347783 0,0.155405 -0.04251,0.269629 -0.127124,0.349849 -0.08469,0.08029 -0.205749,0.120923 -0.36897,0.120923 h -0.422196 z m -5.130953,0.253731 c -0.310011,0 -0.562238,0.101116 -0.747758,0.302824 -0.184385,0.20058 -0.275436,0.472337 -0.275436,0.808736 0,0.326159 0.09664,0.590663 0.290938,0.784965 0.195532,0.194286 0.46059,0.290938 0.7891,0.290938 0.130845,0 0.261383,-0.01391 0.388606,-0.04082 0.127058,-0.02688 0.25016,-0.06603 0.371037,-0.117306 l 0.0217,-0.0078 v -0.394248 l -0.05064,0.02739 c -0.115422,0.06124 -0.232609,0.105942 -0.349849,0.136426 -0.115874,0.03043 -0.236834,0.04496 -0.361219,0.04496 -0.213369,0 -0.37423,-0.05628 -0.490409,-0.167948 -0.106508,-0.104421 -0.159754,-0.263056 -0.179834,-0.460954 h 1.509985 v -0.197403 c 0,-0.30554 -0.08364,-0.552975 -0.248047,-0.734323 -0.163939,-0.182711 -0.38934,-0.275435 -0.668176,-0.275435 z m 3.293338,0 c -0.310009,0 -0.562753,0.101116 -0.748274,0.302824 -0.184384,0.20058 -0.275436,0.472337 -0.275436,0.808736 0,0.326159 0.09663,0.590663 0.290939,0.784965 0.195533,0.194286 0.462658,0.290938 0.791166,0.290938 0.130846,0 0.259316,-0.01391 0.38654,-0.04082 0.127057,-0.02688 0.250676,-0.06603 0.371553,-0.117306 l 0.02119,-0.0078 v -0.394248 l -0.05064,0.02739 c -0.115423,0.06124 -0.232609,0.105942 -0.349849,0.136426 -0.115875,0.03043 -0.234766,0.04496 -0.359152,0.04496 -0.212609,0 -0.374324,-0.05707 -0.490409,-0.167948 -0.10652,-0.104432 -0.161312,-0.263023 -0.181384,-0.460954 h 1.509469 v -0.197403 c 0,-0.305295 -0.08184,-0.553016 -0.24598,-0.734323 C 39.337952,53.538839 39.111,53.446115 38.832164,53.446115 Z m -10.574548,0.01757 c 0.622585,0 1.119312,0.496726 1.119312,1.119311 0,0.622585 -0.496727,1.119312 -1.119312,1.119312 -0.622584,0 -1.118794,-0.496727 -1.118794,-1.119312 0,-0.622585 0.49621,-1.119311 1.118794,-1.119311 z m 7.285343,0.334346 c 0.155539,0 0.273404,0.04946 0.365353,0.150379 0.08519,0.09237 0.123522,0.220833 0.132808,0.374654 l -1.084171,0.0021 c 0.02193,-0.1599 0.07008,-0.291729 0.164331,-0.380855 0.104602,-0.09785 0.243403,-0.146244 0.421679,-0.146244 z m 3.292823,0 c 0.155539,0 0.275471,0.04946 0.367419,0.150379 0.08517,0.09235 0.121446,0.220865 0.130742,0.374654 l -1.084172,0.0021 c 0.02193,-0.1599 0.07008,-0.291729 0.164331,-0.380855 0.104603,-0.09785 0.243404,-0.146244 0.42168,-0.146244 z m 5.464783,0.306441 c 0.256686,0 0.460953,0.202201 0.460953,0.458887 0,0.256686 -0.204267,0.458887 -0.460953,0.458887 -0.256687,0 -0.458887,-0.202201 -0.458887,-0.458887 0,-0.256686 0.2022,-0.458887 0.458887,-0.458887 z m -3.882451,2.236556 c 0.256686,0 0.460954,0.204268 0.460954,0.460954 0,0.256686 -0.204268,0.458887 -0.460954,0.458887 -0.256686,0 -0.458886,-0.202201 -0.458886,-0.458887 0,-0.256686 0.2022,-0.460954 0.458886,-0.460954 z m -8.269779,1.574064 c 0.622585,0 1.119311,0.496727 1.119311,1.119312 0,0.622585 -0.496726,1.118795 -1.119311,1.118795 -0.622584,0 -1.118795,-0.49621 -1.118795,-1.118795 0,-0.622585 0.496211,-1.119312 1.118795,-1.119312 z" />
      <ellipse
         style="fill:none;fill-rule:evenodd;stroke:#2980b9;stroke-width:0.75;stroke-linecap:round;stroke-linejoin:round;stroke-miterlimit:4;stroke-dasharray:none;stroke-opacity:1"
         id="path1606"
         cx="28.25721"
         cy="54.550602"
         rx="1.4942478"
         ry="1.4942479" />
      <path
         style="fill:none;stroke:#2980b9;stroke-width:0.75;stroke-linecap:butt;stroke-linejoin:miter;stroke-miterlimit:4;stroke-dasharray:none;stroke-opacity:1"
         d="m 33.782741,58.959292 h 2.777593 l 2.16353,-2.163527 h 0.976338"
         id="path3801"
         sodipodi:nodetypes="cccc" />
      <path
         style="fill:none;stroke:#2980b9;stroke-width:0.75;stroke-linecap:butt;stroke-linejoin:miter;stroke-miterlimit:4;stroke-dasharray:none;stroke-opacity:1"
         d="m 29.930662,54.54323 h 1.868869 l 2.252538,2.252535 h 5.648133"
         id="path4133"
         sodipodi:nodetypes="cccc" />
      <circle
         style="fill:none;stroke:#e74c3c;stroke-width:0.5;stroke-linecap:round;stroke-linejoin:round;stroke-miterlimit:4;stroke-dasharray:none;stroke-opacity:1"
         id="path41360"
         cx="40.418613"
         cy="56.768234"
         r="0.70940959" />
      <circle
         style="fill:none;stroke:#e74c3c;stroke-width:0.5;stroke-linecap:round;stroke-linejoin:round;stroke-miterlimit:4;stroke-dasharray:none;stroke-opacity:1"
         id="circle41444"
         cx="48.496998"
         cy="52.339058"
         r="0.70940959" />
      <ellipse
         style="fill:none;fill-rule:evenodd;stroke:#2980b9;stroke-width:0.75;stroke-linecap:round;stroke-linejoin:round;stroke-miterlimit:4;stroke-dasharray:none;stroke-opacity:1"
         id="ellipse41643"
         cx="32.148197"
         cy="59.000637"
         rx="1.4942478"
         ry="1.4942479" />
      <g
         aria-label="TelePl  t"
         id="text42791"
         style="font-size:3.68775px;line-height:1.25;fill:#34495e;stroke-width:0.07">
        <path
           d="m 32.709865,52.825459 h 2.274232 v 0.306112 h -0.954349 v 2.382273 h -0.365534 v -2.382273 h -0.954349 z"
           style="stroke:#34495e"
           id="path72713" />
        <path
           d="m 36.419223,54.422644 v 0.162059 h -1.523358 q 0.02161,0.342126 0.205275,0.522192 0.185468,0.178265 0.514989,0.178265 0.19087,0 0.369135,-0.04682 0.180066,-0.04682 0.35653,-0.140452 v 0.313315 q -0.178265,0.07563 -0.365533,0.115242 -0.187269,0.03961 -0.379939,0.03961 -0.482577,0 -0.765281,-0.280903 -0.280902,-0.280903 -0.280902,-0.759878 0,-0.495182 0.266497,-0.785088 0.268298,-0.291707 0.722064,-0.291707 0.406949,0 0.642836,0.262897 0.237687,0.261095 0.237687,0.71126 z m -0.331321,-0.09724 q -0.0036,-0.271899 -0.153056,-0.433958 -0.147655,-0.16206 -0.392544,-0.16206 -0.277302,0 -0.444763,0.156658 -0.165661,0.156657 -0.19087,0.441161 z"
           style="stroke:#34495e"
           id="path72715" />
        <path
           d="m 36.963022,52.712018 h 0.331321 v 2.801826 h -0.331321 z"
           style="stroke:#34495e"
           id="path72717" />
        <path
           d="m 39.712629,54.422644 v 0.162059 h -1.523358 q 0.02161,0.342126 0.205275,0.522192 0.185468,0.178265 0.514989,0.178265 0.19087,0 0.369135,-0.04682 0.180066,-0.04682 0.35653,-0.140452 v 0.313315 q -0.178265,0.07563 -0.365533,0.115242 -0.187269,0.03961 -0.37994,0.03961 -0.482576,0 -0.76528,-0.280903 -0.280903,-0.280903 -0.280903,-0.759878 0,-0.495182 0.266498,-0.785088 0.268298,-0.291707 0.722064,-0.291707 0.406949,0 0.642836,0.262897 0.237687,0.261095 0.237687,0.71126 z m -0.331322,-0.09724 q -0.0036,-0.271899 -0.153056,-0.433958 -0.147654,-0.16206 -0.392543,-0.16206 -0.277302,0 -0.444763,0.156658 -0.165661,0.156657 -0.19087,0.441161 z"
           style="stroke:#34495e"
           id="path72719" />
        <path
           d="m 40.634566,53.124369 v 1.01017 h 0.457367 q 0.253893,0 0.392544,-0.131449 0.138651,-0.131448 0.138651,-0.374537 0,-0.241288 -0.138651,-0.372736 -0.138651,-0.131448 -0.392544,-0.131448 z m -0.363733,-0.29891 h 0.8211 q 0.451966,0 0.68245,0.205275 0.232285,0.203475 0.232285,0.597819 0,0.397946 -0.232285,0.601421 -0.230484,0.203474 -0.68245,0.203474 h -0.457367 v 1.080396 h -0.363733 z"
           style="stroke:#34495e"
           id="path72721" />
        <path
           d="m 42.480242,52.712018 h 0.331321 v 2.801826 h -0.331321 z"
           style="stroke:#34495e"
           id="path72723" />
        <path
           d="m 46.176995,52.924496 v 0.572609 h 0.68245 v 0.257494 h -0.68245 V 54.8494 q 0,0.246691 0.06663,0.316916 0.06842,0.07023 0.275501,0.07023 h 0.340324 v 0.277302 h -0.340324 q -0.383541,0 -0.529394,-0.142253 -0.145854,-0.144052 -0.145854,-0.522191 v -1.094801 h -0.243089 v -0.257494 h 0.243089 V 52.9245 Z"
           style="stroke:#34495e"
           id="path72725" />
      </g>
      <circle
         style="fill:none;stroke:#e74c3c;stroke-width:0.5;stroke-linecap:round;stroke-linejoin:round;stroke-miterlimit:4;stroke-dasharray:none;stroke-opacity:1"
         id="circle46124"
         cx="44.301723"
         cy="54.530075"
         r="0.70940959" />
      <path
         style="fill:none;stroke:#e74c3c;stroke-width:0.5;stroke-linecap:butt;stroke-linejoin:miter;stroke-miterlimit:4;stroke-dasharray:none;stroke-opacity:1"
         d="m 43.955009,55.177734 c -0.494894,0.857181 -1.06987,1.727573 -2.760808,1.593953"
         id="path48424"
         sodipodi:nodetypes="cc" />
      <path
         style="fill:none;stroke:#e74c3c;stroke-width:0.5;stroke-linecap:butt;stroke-linejoin:miter;stroke-miterlimit:4;stroke-dasharray:none;stroke-opacity:1"
         d="m 44.612465,53.727843 c 0.850262,-1.472697 2.280168,-1.449349 3.210226,-1.449349"
         id="path48914"
         sodipodi:nodetypes="cc" />
    </g>
  </g>
</svg>
