<?xml version="1.0" encoding="UTF-8" standalone="no"?>
<!-- Created with Inkscape (http://www.inkscape.org/) -->

<svg
   width="23.068445mm"
   height="9.4902363mm"
   viewBox="0 0 23.068445 9.4902363"
   version="1.1"
   id="svg5"
   inkscape:version="1.1 (1:1.1+202105261517+ce6663b3b7)"
   sodipodi:docname="logo-color.svg"
   xmlns:inkscape="http://www.inkscape.org/namespaces/inkscape"
   xmlns:sodipodi="http://sodipodi.sourceforge.net/DTD/sodipodi-0.dtd"
   xmlns="http://www.w3.org/2000/svg"
   xmlns:svg="http://www.w3.org/2000/svg">
  <sodipodi:namedview
     id="namedview7"
     pagecolor="#ffffff"
     bordercolor="#dcdcdc"
     borderopacity="1"
     inkscape:pageshadow="0"
     inkscape:pageopacity="0"
     inkscape:pagecheckerboard="false"
     inkscape:document-units="mm"
     showgrid="false"
     fit-margin-top="0"
     fit-margin-left="0"
     fit-margin-right="0"
     fit-margin-bottom="0"
     inkscape:zoom="8.5065501"
     inkscape:cx="39.910421"
     inkscape:cy="17.104466"
     inkscape:window-width="1860"
     inkscape:window-height="1016"
     inkscape:window-x="60"
     inkscape:window-y="27"
     inkscape:window-maximized="1"
     inkscape:current-layer="g62789" />
  <defs
     id="defs2" />
  <g
     inkscape:label="Layer 1"
     inkscape:groupmode="layer"
     id="layer1"
     transform="translate(-5.309678,-5.8494653)">
    <g
       id="g62789"
       transform="translate(-21.078284,-45.530183)">
      <ellipse
         style="fill:none;fill-rule:evenodd;stroke:#2980b9;stroke-width:0.75;stroke-linecap:round;stroke-linejoin:round;stroke-miterlimit:4;stroke-dasharray:none;stroke-opacity:1"
         id="path1606"
         cx="28.25721"
         cy="54.550602"
         rx="1.4942478"
         ry="1.4942479" />
      <path
         style="fill:none;stroke:#2980b9;stroke-width:0.75;stroke-linecap:butt;stroke-linejoin:miter;stroke-miterlimit:4;stroke-dasharray:none;stroke-opacity:1"
         d="m 33.782741,58.959292 h 2.777593 l 2.16353,-2.163527 h 0.976338"
         id="path3801"
         sodipodi:nodetypes="cccc" />
      <path
         style="fill:none;stroke:#2980b9;stroke-width:0.75;stroke-linecap:butt;stroke-linejoin:miter;stroke-miterlimit:4;stroke-dasharray:none;stroke-opacity:1"
         d="m 29.930662,54.54323 h 1.868869 l 2.252538,2.252535 h 5.648133"
         id="path4133"
         sodipodi:nodetypes="cccc" />
      <circle
         style="fill:none;stroke:#e74c3c;stroke-width:0.5;stroke-linecap:round;stroke-linejoin:round;stroke-miterlimit:4;stroke-dasharray:none;stroke-opacity:1"
         id="path41360"
         cx="40.418613"
         cy="56.768234"
         r="0.70940959" />
      <circle
         style="fill:none;stroke:#e74c3c;stroke-width:0.5;stroke-linecap:round;stroke-linejoin:round;stroke-miterlimit:4;stroke-dasharray:none;stroke-opacity:1"
         id="circle41444"
         cx="48.496998"
         cy="52.339058"
         r="0.70940959" />
      <ellipse
         style="fill:none;fill-rule:evenodd;stroke:#2980b9;stroke-width:0.75;stroke-linecap:round;stroke-linejoin:round;stroke-miterlimit:4;stroke-dasharray:none;stroke-opacity:1"
         id="ellipse41643"
         cx="32.148197"
         cy="59.000637"
         rx="1.4942478"
         ry="1.4942479" />
      <g
         aria-label="TelePl  t"
         id="text42791"
         style="font-size:3.68775px;line-height:1.25;fill:#34495e;stroke-width:0.07">
        <path
           d="m 32.709865,52.825459 h 2.274232 v 0.306112 h -0.954349 v 2.382273 h -0.365534 v -2.382273 h -0.954349 z"
           style="stroke:#34495e"
           id="path72713" />
        <path
           d="m 36.419223,54.422644 v 0.162059 h -1.523358 q 0.02161,0.342126 0.205275,0.522192 0.185468,0.178265 0.514989,0.178265 0.19087,0 0.369135,-0.04682 0.180066,-0.04682 0.35653,-0.140452 v 0.313315 q -0.178265,0.07563 -0.365533,0.115242 -0.187269,0.03961 -0.379939,0.03961 -0.482577,0 -0.765281,-0.280903 -0.280902,-0.280903 -0.280902,-0.759878 0,-0.495182 0.266497,-0.785088 0.268298,-0.291707 0.722064,-0.291707 0.406949,0 0.642836,0.262897 0.237687,0.261095 0.237687,0.71126 z m -0.331321,-0.09724 q -0.0036,-0.271899 -0.153056,-0.433958 -0.147655,-0.16206 -0.392544,-0.16206 -0.277302,0 -0.444763,0.156658 -0.165661,0.156657 -0.19087,0.441161 z"
           style="stroke:#34495e"
           id="path72715" />
        <path
           d="m 36.963022,52.712018 h 0.331321 v 2.801826 h -0.331321 z"
           style="stroke:#34495e"
           id="path72717" />
        <path
           d="m 39.712629,54.422644 v 0.162059 h -1.523358 q 0.02161,0.342126 0.205275,0.522192 0.185468,0.178265 0.514989,0.178265 0.19087,0 0.369135,-0.04682 0.180066,-0.04682 0.35653,-0.140452 v 0.313315 q -0.178265,0.07563 -0.365533,0.115242 -0.187269,0.03961 -0.37994,0.03961 -0.482576,0 -0.76528,-0.280903 -0.280903,-0.280903 -0.280903,-0.759878 0,-0.495182 0.266498,-0.785088 0.268298,-0.291707 0.722064,-0.291707 0.406949,0 0.642836,0.262897 0.237687,0.261095 0.237687,0.71126 z m -0.331322,-0.09724 q -0.0036,-0.271899 -0.153056,-0.433958 -0.147654,-0.16206 -0.392543,-0.16206 -0.277302,0 -0.444763,0.156658 -0.165661,0.156657 -0.19087,0.441161 z"
           style="stroke:#34495e"
           id="path72719" />
        <path
           d="m 40.634566,53.124369 v 1.01017 h 0.457367 q 0.253893,0 0.392544,-0.131449 0.138651,-0.131448 0.138651,-0.374537 0,-0.241288 -0.138651,-0.372736 -0.138651,-0.131448 -0.392544,-0.131448 z m -0.363733,-0.29891 h 0.8211 q 0.451966,0 0.68245,0.205275 0.232285,0.203475 0.232285,0.597819 0,0.397946 -0.232285,0.601421 -0.230484,0.203474 -0.68245,0.203474 h -0.457367 v 1.080396 h -0.363733 z"
           style="stroke:#34495e"
           id="path72721" />
        <path
           d="m 42.480242,52.712018 h 0.331321 v 2.801826 h -0.331321 z"
           style="stroke:#34495e"
           id="path72723" />
        <path
           d="m 46.176995,52.924496 v 0.572609 h 0.68245 v 0.257494 h -0.68245 V 54.8494 q 0,0.246691 0.06663,0.316916 0.06842,0.07023 0.275501,0.07023 h 0.340324 v 0.277302 h -0.340324 q -0.383541,0 -0.529394,-0.142253 -0.145854,-0.144052 -0.145854,-0.522191 v -1.094801 h -0.243089 v -0.257494 h 0.243089 v -0.572609 z"
           style="stroke:#34495e"
           id="path72725" />
      </g>
      <circle
         style="fill:none;stroke:#e74c3c;stroke-width:0.5;stroke-linecap:round;stroke-linejoin:round;stroke-miterlimit:4;stroke-dasharray:none;stroke-opacity:1"
         id="circle46124"
         cx="44.301723"
         cy="54.530075"
         r="0.70940959" />
      <path
         style="fill:none;stroke:#e74c3c;stroke-width:0.5;stroke-linecap:butt;stroke-linejoin:miter;stroke-miterlimit:4;stroke-dasharray:none;stroke-opacity:1"
         d="m 43.955009,55.177734 c -0.494894,0.857181 -1.06987,1.727573 -2.760808,1.593953"
         id="path48424"
         sodipodi:nodetypes="cc" />
      <path
         style="fill:none;stroke:#e74c3c;stroke-width:0.5;stroke-linecap:butt;stroke-linejoin:miter;stroke-miterlimit:4;stroke-dasharray:none;stroke-opacity:1"
         d="m 44.612465,53.727843 c 0.850262,-1.472697 2.280168,-1.449349 3.210226,-1.449349"
         id="path48914"
         sodipodi:nodetypes="cc" />
    </g>
  </g>
</svg>
